<?xml version="1.0" encoding="utf-8"?>
<!-- Generator: Adobe Illustrator 19.0.0, SVG Export Plug-In . SVG Version: 6.00 Build 0)  -->
<svg version="1.1" id="Layer_1" xmlns="http://www.w3.org/2000/svg" xmlns:xlink="http://www.w3.org/1999/xlink" x="0px" y="0px"
	 viewBox="0 0 106 106" style="enable-background:new 0 0 106 106;" xml:space="preserve">
<path d="M105.3,42.4C103.7,26.5,93.2,7.6,74,3.8C71.4,3.3,68.6,3,65.9,3c-13.8,0-27,6.6-34.4,17.3c-0.2,0.3-0.4,0.5-0.6,0.8
	c-8.3,12.5-7,29.9,2.9,39.6c0.7,0.7,1.5,1.4,2.3,2.1c1.9,1.6,3.6,3.2,4.8,5.2c1.9,3.3,1.9,7.9,0.1,12.2c-1.7,4-4.6,7.5-7.5,10.8
	c-0.2,0.3-0.3,0.6-0.1,0.9c0.2,0.3,0.5,0.5,0.8,0.5c6.5-0.4,12.7-3.9,17-9.6s6-12.6,4.7-19c-0.1-0.3-0.3-0.6-0.7-0.7
	c-0.3-0.1-0.7,0.1-0.9,0.3c-0.9,1.2-2.3,1.5-3.3,1.5c-1.6,0-3.3-0.7-4.4-1.7c-5.4-5.2-5.8-13.3-5.5-17.7c0.3-5.3,2.1-9.4,4.1-13.7
	c0.1-0.1,0.1-0.3,0.2-0.4c0.9,4.3,4.5,8.4,8.1,11c0.9,0.7,1.9,1.3,2.9,2c4.1,2.8,8.3,5.6,10,10c2.5,6.5-1.3,13.7-5.9,20.5
	c-0.2,0.3-0.2,0.6,0,0.9c0.1,0.3,0.5,0.5,0.8,0.5c2.1,0,4.2-0.8,5.8-2.1C67,81.8,59,87.8,52.8,91.8L38.1,101
	c-0.3,0.2-0.5,0.6-0.4,0.9c0.1,0.4,0.4,0.6,0.7,0.7c2.2,0.3,4.5,0.5,6.7,0.5c16.3,0,33.7-8.2,47.7-22.6
	C101.9,71.1,106.7,56.5,105.3,42.4z"/>
<g>
	<g>
		<path d="M29.8,73.5c-1.3-0.9-2.8-1.4-4.4-1.7c1.6-0.1,3.2-0.5,4.6-1.1c4.5-2.2,5.9-5.2,4.7-7.5c-1.1-2.3-4.3-3-8.8-0.8
			c-1.4,0.7-2.6,1.8-3.7,3c0.7-1.4,1.2-3,1.3-4.6c0.3-5.1-1.6-7.7-4.1-7.8c-2.5-0.2-4.7,2.2-5.1,7.2c-0.1,1.5,0.2,3.2,0.7,4.7
			c-0.9-1.3-2-2.6-3.3-3.4c-4.2-2.8-7.4-2.5-8.8-0.4c-1.4,2.1-0.5,5.2,3.7,8c1.3,0.9,2.9,1.4,4.4,1.7C9.5,71,7.8,71.3,6.5,72
			c-4.5,2.3-5.9,5.2-4.7,7.5c1.1,2.3,4.3,3,8.8,0.8c1.4-0.7,2.6-1.8,3.7-3c-0.7,1.4-1.2,3-1.3,4.6c-0.3,5.1,1.6,7.7,4.1,7.8
			c2.5,0.2,4.7-2.2,5.1-7.2c0.1-1.5-0.2-3.2-0.7-4.7c0.9,1.3,2,2.6,3.3,3.4c4.2,2.8,7.4,2.5,8.8,0.4C34.9,79.4,34,76.3,29.8,73.5z
			 M18,75c-2-0.1-3.6-1.9-3.4-3.9c0.1-2,1.9-3.6,3.9-3.4c2,0.1,3.6,1.9,3.4,3.9C21.7,73.6,20,75.1,18,75z"/>
	</g>
</g>
</svg>
