<?xml version="1.0" encoding="utf-8"?>
<!-- Generator: Adobe Illustrator 19.0.0, SVG Export Plug-In . SVG Version: 6.00 Build 0)  -->
<svg version="1.1" id="Layer_1" xmlns="http://www.w3.org/2000/svg" xmlns:xlink="http://www.w3.org/1999/xlink" x="0px" y="0px"
	 viewBox="0 0 866 257" style="enable-background:new 0 0 866 257;" xml:space="preserve">
<style type="text/css">
	.st0{fill:#FFFFFF;}
	.st1{font-family:'FuturaBT-Book';}
	.st2{font-size:121.8107px;}
	.st3{letter-spacing:-4;}
	.st4{display:none;fill:#373535;}
	.st5{fill:#FFFFFF;stroke:#FFFFFF;stroke-width:2;stroke-miterlimit:10;}
</style>
<rect id="XMLID_2_" x="423.7" y="50.1" class="st0" width="5" height="172.7"/>
<text id="XMLID_9_" transform="matrix(1 0 0 1 450.9785 141.7664)" class="st0 st1 st2 st3">business</text>
<text id="XMLID_27_" transform="matrix(1 0 0 1 550.9785 141.7664)" class="st4 st1 st2 st3">business</text>
<text id="XMLID_29_" transform="matrix(1 0 0 1 550.9785 141.7664)" class="st4 st1 st2 st3">business</text>
<text id="XMLID_62_" transform="matrix(1 0 0 1 550.9785 141.7664)" class="st4 st1 st2 st3">business</text>
<text id="XMLID_61_" transform="matrix(1 0 0 1 550.9785 141.7664)" class="st4 st1 st2 st3">business</text>
<g id="XMLID_12_">
	<path id="XMLID_93_" class="st0" d="M469.8,167.4v26.5c0,7.7,1.1,13.1,3.4,16.2c2.3,3.1,6.2,4.6,11.6,4.6s9.3-1.5,11.6-4.6
		c2.3-3,3.4-8.5,3.4-16.3v-26.5h9.4v31.4c0,8.1-2.1,14.3-6.2,18.4c-4.2,4.2-10.3,6.3-18.4,6.3c-8,0-14.1-2.1-18.2-6.3
		s-6.2-10.3-6.2-18.4v-31.4H469.8z"/>
	<path id="XMLID_95_" class="st0" d="M527.1,221.2v-53.8h9v8.3c2.3-3.4,5.1-6,8.4-7.7c3.3-1.7,7-2.5,11.3-2.5
		c6.4,0,11.3,1.7,14.9,5.1c3.6,3.4,5.4,8.1,5.4,14.1v36.6h-9.4v-31.7c0-5.4-1.1-9.5-3.4-12.1c-2.3-2.6-5.8-4-10.6-4
		c-2.7,0-5.2,0.5-7.5,1.5c-2.3,1-4.1,2.4-5.6,4.3c-1.1,1.4-2,3-2.4,4.8c-0.5,1.8-0.7,4.9-0.7,9.4v27.8H527.1z"/>
	<path id="XMLID_97_" class="st0" d="M594.6,221.2v-53.8h9.3v53.8H594.6z"/>
	<path id="XMLID_100_" class="st0" d="M619,194.5c0-4,0.7-7.7,2.2-11.2c1.4-3.5,3.6-6.6,6.4-9.4c2.8-2.7,5.9-4.8,9.5-6.3
		c3.5-1.4,7.3-2.1,11.3-2.1c3.9,0,7.6,0.7,11.1,2.2c3.5,1.5,6.7,3.6,9.6,6.4c2.8,2.7,4.9,5.8,6.4,9.3c1.4,3.5,2.2,7.2,2.2,11.1
		c0,3.9-0.7,7.6-2.2,11.1c-1.5,3.5-3.6,6.6-6.4,9.3c-2.9,2.8-6.1,5-9.6,6.5c-3.6,1.5-7.2,2.2-11.1,2.2c-4,0-7.7-0.7-11.3-2.2
		c-3.6-1.5-6.7-3.6-9.5-6.3c-2.8-2.8-4.9-6-6.4-9.4C619.7,202.1,619,198.4,619,194.5z M628.8,194.5c0,5.7,1.9,10.5,5.7,14.4
		c3.8,3.9,8.4,5.9,13.8,5.9c5.4,0,9.9-2,13.7-5.9c3.8-3.9,5.6-8.8,5.6-14.4c0-5.7-1.9-10.5-5.6-14.4c-3.8-3.9-8.3-5.9-13.7-5.9
		c-5.5,0-10.1,2-13.9,5.9C630.6,184,628.8,188.8,628.8,194.5z"/>
	<path id="XMLID_103_" class="st0" d="M691.9,221.2v-53.8h9v8.3c2.3-3.4,5.1-6,8.4-7.7c3.3-1.7,7-2.5,11.3-2.5
		c6.4,0,11.3,1.7,14.9,5.1c3.6,3.4,5.4,8.1,5.4,14.1v36.6h-9.4v-31.7c0-5.4-1.1-9.5-3.4-12.1c-2.3-2.6-5.8-4-10.6-4
		c-2.7,0-5.2,0.5-7.5,1.5c-2.3,1-4.1,2.4-5.6,4.3c-1.1,1.4-2,3-2.4,4.8c-0.5,1.8-0.7,4.9-0.7,9.4v27.8H691.9z"/>
</g>
<g id="XMLID_63_">
	<path id="XMLID_81_" class="st0" d="M469.8,167.4v26.5c0,7.7,1.1,13.1,3.4,16.2c2.3,3.1,6.2,4.6,11.6,4.6s9.3-1.5,11.6-4.6
		c2.3-3,3.4-8.5,3.4-16.3v-26.5h9.4v31.4c0,8.1-2.1,14.3-6.2,18.4c-4.2,4.2-10.3,6.3-18.4,6.3c-8,0-14.1-2.1-18.2-6.3
		s-6.2-10.3-6.2-18.4v-31.4H469.8z"/>
	<path id="XMLID_83_" class="st0" d="M527.1,221.2v-53.8h9v8.3c2.3-3.4,5.1-6,8.4-7.7c3.3-1.7,7-2.5,11.3-2.5
		c6.4,0,11.3,1.7,14.9,5.1c3.6,3.4,5.4,8.1,5.4,14.1v36.6h-9.4v-31.7c0-5.4-1.1-9.5-3.4-12.1c-2.3-2.6-5.8-4-10.6-4
		c-2.7,0-5.2,0.5-7.5,1.5c-2.3,1-4.1,2.4-5.6,4.3c-1.1,1.4-2,3-2.4,4.8c-0.5,1.8-0.7,4.9-0.7,9.4v27.8H527.1z"/>
	<path id="XMLID_85_" class="st0" d="M594.6,221.2v-53.8h9.3v53.8H594.6z"/>
	<path id="XMLID_88_" class="st0" d="M619,194.5c0-4,0.7-7.7,2.2-11.2c1.4-3.5,3.6-6.6,6.4-9.4c2.8-2.7,5.9-4.8,9.5-6.3
		c3.5-1.4,7.3-2.1,11.3-2.1c3.9,0,7.6,0.7,11.1,2.2c3.5,1.5,6.7,3.6,9.6,6.4c2.8,2.7,4.9,5.8,6.4,9.3c1.4,3.5,2.2,7.2,2.2,11.1
		c0,3.9-0.7,7.6-2.2,11.1c-1.5,3.5-3.6,6.6-6.4,9.3c-2.9,2.8-6.1,5-9.6,6.5c-3.6,1.5-7.2,2.2-11.1,2.2c-4,0-7.7-0.7-11.3-2.2
		c-3.6-1.5-6.7-3.6-9.5-6.3c-2.8-2.8-4.9-6-6.4-9.4C619.7,202.1,619,198.4,619,194.5z M628.8,194.5c0,5.7,1.9,10.5,5.7,14.4
		c3.8,3.9,8.4,5.9,13.8,5.9c5.4,0,9.9-2,13.7-5.9c3.8-3.9,5.6-8.8,5.6-14.4c0-5.7-1.9-10.5-5.6-14.4c-3.8-3.9-8.3-5.9-13.7-5.9
		c-5.5,0-10.1,2-13.9,5.9C630.6,184,628.8,188.8,628.8,194.5z"/>
	<path id="XMLID_91_" class="st0" d="M691.9,221.2v-53.8h9v8.3c2.3-3.4,5.1-6,8.4-7.7c3.3-1.7,7-2.5,11.3-2.5
		c6.4,0,11.3,1.7,14.9,5.1c3.6,3.4,5.4,8.1,5.4,14.1v36.6h-9.4v-31.7c0-5.4-1.1-9.5-3.4-12.1c-2.3-2.6-5.8-4-10.6-4
		c-2.7,0-5.2,0.5-7.5,1.5c-2.3,1-4.1,2.4-5.6,4.3c-1.1,1.4-2,3-2.4,4.8c-0.5,1.8-0.7,4.9-0.7,9.4v27.8H691.9z"/>
</g>
<g id="XMLID_64_">
	<path id="XMLID_69_" class="st0" d="M469.8,167.4v26.5c0,7.7,1.1,13.1,3.4,16.2c2.3,3.1,6.2,4.6,11.6,4.6s9.3-1.5,11.6-4.6
		c2.3-3,3.4-8.5,3.4-16.3v-26.5h9.4v31.4c0,8.1-2.1,14.3-6.2,18.4c-4.2,4.2-10.3,6.3-18.4,6.3c-8,0-14.1-2.1-18.2-6.3
		s-6.2-10.3-6.2-18.4v-31.4H469.8z"/>
	<path id="XMLID_71_" class="st0" d="M527.1,221.2v-53.8h9v8.3c2.3-3.4,5.1-6,8.4-7.7c3.3-1.7,7-2.5,11.3-2.5
		c6.4,0,11.3,1.7,14.9,5.1c3.6,3.4,5.4,8.1,5.4,14.1v36.6h-9.4v-31.7c0-5.4-1.1-9.5-3.4-12.1c-2.3-2.6-5.8-4-10.6-4
		c-2.7,0-5.2,0.5-7.5,1.5c-2.3,1-4.1,2.4-5.6,4.3c-1.1,1.4-2,3-2.4,4.8c-0.5,1.8-0.7,4.9-0.7,9.4v27.8H527.1z"/>
	<path id="XMLID_73_" class="st0" d="M594.6,221.2v-53.8h9.3v53.8H594.6z"/>
	<path id="XMLID_76_" class="st0" d="M619,194.5c0-4,0.7-7.7,2.2-11.2c1.4-3.5,3.6-6.6,6.4-9.4c2.8-2.7,5.9-4.8,9.5-6.3
		c3.5-1.4,7.3-2.1,11.3-2.1c3.9,0,7.6,0.7,11.1,2.2c3.5,1.5,6.7,3.6,9.6,6.4c2.8,2.7,4.9,5.8,6.4,9.3c1.4,3.5,2.2,7.2,2.2,11.1
		c0,3.9-0.7,7.6-2.2,11.1c-1.5,3.5-3.6,6.6-6.4,9.3c-2.9,2.8-6.1,5-9.6,6.5c-3.6,1.5-7.2,2.2-11.1,2.2c-4,0-7.7-0.7-11.3-2.2
		c-3.6-1.5-6.7-3.6-9.5-6.3c-2.8-2.8-4.9-6-6.4-9.4C619.7,202.1,619,198.4,619,194.5z M628.8,194.5c0,5.7,1.9,10.5,5.7,14.4
		c3.8,3.9,8.4,5.9,13.8,5.9c5.4,0,9.9-2,13.7-5.9c3.8-3.9,5.6-8.8,5.6-14.4c0-5.7-1.9-10.5-5.6-14.4c-3.8-3.9-8.3-5.9-13.7-5.9
		c-5.5,0-10.1,2-13.9,5.9C630.6,184,628.8,188.8,628.8,194.5z"/>
	<path id="XMLID_79_" class="st0" d="M691.9,221.2v-53.8h9v8.3c2.3-3.4,5.1-6,8.4-7.7c3.3-1.7,7-2.5,11.3-2.5
		c6.4,0,11.3,1.7,14.9,5.1c3.6,3.4,5.4,8.1,5.4,14.1v36.6h-9.4v-31.7c0-5.4-1.1-9.5-3.4-12.1c-2.3-2.6-5.8-4-10.6-4
		c-2.7,0-5.2,0.5-7.5,1.5c-2.3,1-4.1,2.4-5.6,4.3c-1.1,1.4-2,3-2.4,4.8c-0.5,1.8-0.7,4.9-0.7,9.4v27.8H691.9z"/>
</g>
<g id="XMLID_13_">
	<g id="XMLID_15_">
		<path id="XMLID_150_" class="st0" d="M471.4,167.4v26.5c0,7.7,1.1,13.1,3.4,16.2c2.3,3.1,6.2,4.6,11.6,4.6c5.5,0,9.3-1.5,11.6-4.6
			c2.3-3,3.4-8.5,3.4-16.3v-26.5h9.4v31.4c0,8.1-2.1,14.3-6.2,18.4c-4.2,4.2-10.3,6.3-18.4,6.3c-8,0-14.1-2.1-18.2-6.3
			s-6.2-10.3-6.2-18.4v-31.4H471.4z"/>
	</g>
	<g id="XMLID_17_">
		<path id="XMLID_147_" class="st0" d="M528.6,221.2v-53.8h9v8.3c2.3-3.4,5.1-6,8.4-7.7c3.3-1.7,7-2.5,11.3-2.5
			c6.4,0,11.3,1.7,14.9,5.1c3.6,3.4,5.4,8.1,5.4,14.1v36.6h-9.4v-31.7c0-5.4-1.1-9.5-3.4-12.1c-2.3-2.6-5.8-4-10.6-4
			c-2.7,0-5.2,0.5-7.5,1.5c-2.3,1-4.1,2.4-5.6,4.3c-1.1,1.4-2,3-2.4,4.8c-0.5,1.8-0.7,4.9-0.7,9.4v27.8H528.6z"/>
	</g>
	<g id="XMLID_19_">
		<path id="XMLID_141_" class="st0" d="M600.8,148.2 M605.5,136.8 M596,136.7 M596.2,221.2v-53.8h9.3v53.8H596.2z"/>
	</g>
	<g id="XMLID_22_">
		<path id="XMLID_137_" class="st0" d="M620.6,194.5c0-4,0.7-7.7,2.2-11.2c1.4-3.5,3.6-6.6,6.4-9.4c2.8-2.7,5.9-4.8,9.5-6.3
			c3.5-1.4,7.3-2.1,11.3-2.1c3.9,0,7.6,0.7,11.1,2.2c3.5,1.5,6.7,3.6,9.6,6.4c2.8,2.7,4.9,5.8,6.4,9.3c1.4,3.5,2.2,7.2,2.2,11.1
			c0,3.9-0.7,7.6-2.2,11.1c-1.5,3.5-3.6,6.6-6.4,9.3c-2.9,2.8-6.1,5-9.6,6.5c-3.6,1.5-7.2,2.2-11.1,2.2c-4,0-7.7-0.7-11.3-2.2
			c-3.6-1.5-6.7-3.6-9.5-6.3c-2.8-2.8-4.9-6-6.4-9.4C621.3,202.1,620.6,198.4,620.6,194.5z M630.3,194.5c0,5.7,1.9,10.5,5.7,14.4
			c3.8,3.9,8.4,5.9,13.8,5.9c5.4,0,9.9-2,13.7-5.9c3.8-3.9,5.6-8.8,5.6-14.4c0-5.7-1.9-10.5-5.6-14.4c-3.8-3.9-8.3-5.9-13.7-5.9
			c-5.5,0-10.1,2-13.9,5.9C632.2,184,630.3,188.8,630.3,194.5z"/>
	</g>
	<g id="XMLID_25_">
		<path id="XMLID_134_" class="st0" d="M693.4,221.2v-53.8h9v8.3c2.3-3.4,5.1-6,8.4-7.7c3.3-1.7,7-2.5,11.3-2.5
			c6.4,0,11.3,1.7,14.9,5.1c3.6,3.4,5.4,8.1,5.4,14.1v36.6h-9.4v-31.7c0-5.4-1.1-9.5-3.4-12.1c-2.3-2.6-5.8-4-10.6-4
			c-2.7,0-5.2,0.5-7.5,1.5c-2.3,1-4.1,2.4-5.6,4.3c-1.1,1.4-2,3-2.4,4.8c-0.5,1.8-0.7,4.9-0.7,9.4v27.8H693.4z"/>
	</g>
</g>
<g id="XMLID_30_">
	<g id="XMLID_50_">
		<path id="XMLID_130_" class="st0" d="M474.6,167.4v26.5c0,7.7,1.1,13.1,3.4,16.2c2.3,3.1,6.2,4.6,11.6,4.6c5.5,0,9.3-1.5,11.6-4.6
			c2.3-3,3.4-8.5,3.4-16.3v-26.5h9.4v31.4c0,8.1-2.1,14.3-6.2,18.4c-4.2,4.2-10.3,6.3-18.4,6.3c-8,0-14.1-2.1-18.2-6.3
			s-6.2-10.3-6.2-18.4v-31.4H474.6z"/>
	</g>
	<g id="XMLID_48_">
		<path id="XMLID_127_" class="st0" d="M531.8,221.2v-53.8h9v8.3c2.3-3.4,5.1-6,8.4-7.7c3.3-1.7,7-2.5,11.3-2.5
			c6.4,0,11.3,1.7,14.9,5.1c3.6,3.4,5.4,8.1,5.4,14.1v36.6h-9.4v-31.7c0-5.4-1.1-9.5-3.4-12.1c-2.3-2.6-5.8-4-10.6-4
			c-2.7,0-5.2,0.5-7.5,1.5c-2.3,1-4.1,2.4-5.6,4.3c-1.1,1.4-2,3-2.4,4.8c-0.5,1.8-0.7,4.9-0.7,9.4v27.8H531.8z"/>
	</g>
	<g id="XMLID_38_">
		<path id="XMLID_121_" class="st0" d="M604,148.2 M608.7,136.8 M599.2,136.7 M599.4,221.2v-53.8h9.3v53.8H599.4z"/>
	</g>
	<g id="XMLID_33_">
		<path id="XMLID_117_" class="st0" d="M622,194.5c0-4,0.7-7.7,2.2-11.2c1.4-3.5,3.6-6.6,6.4-9.4c2.8-2.7,5.9-4.8,9.5-6.3
			c3.5-1.4,7.3-2.1,11.3-2.1c3.9,0,7.6,0.7,11.1,2.2c3.5,1.5,6.7,3.6,9.6,6.4c2.8,2.7,4.9,5.8,6.4,9.3c1.4,3.5,2.2,7.2,2.2,11.1
			c0,3.9-0.7,7.6-2.2,11.1c-1.5,3.5-3.6,6.6-6.4,9.3c-2.9,2.8-6.1,5-9.6,6.5c-3.6,1.5-7.2,2.2-11.1,2.2c-4,0-7.7-0.7-11.3-2.2
			c-3.6-1.5-6.7-3.6-9.5-6.3c-2.8-2.8-4.9-6-6.4-9.4C622.8,202.1,622,198.4,622,194.5z M631.8,194.5c0,5.7,1.9,10.5,5.7,14.4
			c3.8,3.9,8.4,5.9,13.8,5.9c5.4,0,9.9-2,13.7-5.9c3.8-3.9,5.6-8.8,5.6-14.4c0-5.7-1.9-10.5-5.6-14.4c-3.8-3.9-8.3-5.9-13.7-5.9
			c-5.5,0-10.1,2-13.9,5.9C633.7,184,631.8,188.8,631.8,194.5z"/>
	</g>
	<g id="XMLID_31_">
		<path id="XMLID_114_" class="st0" d="M696.6,221.2v-53.8h9v8.3c2.3-3.4,5.1-6,8.4-7.7c3.3-1.7,7-2.5,11.3-2.5
			c6.4,0,11.3,1.7,14.9,5.1c3.6,3.4,5.4,8.1,5.4,14.1v36.6h-9.4v-31.7c0-5.4-1.1-9.5-3.4-12.1c-2.3-2.6-5.8-4-10.6-4
			c-2.7,0-5.2,0.5-7.5,1.5c-2.3,1-4.1,2.4-5.6,4.3c-1.1,1.4-2,3-2.4,4.8c-0.5,1.8-0.7,4.9-0.7,9.4v27.8H696.6z"/>
	</g>
</g>
<ellipse id="XMLID_11_" class="st5" cx="600.8" cy="141.1" rx="8.3" ry="8.6"/>
<path id="XMLID_6_" class="st0" d="M10.4,142.1c-0.1,0.1-0.2,0.1-0.4,0.2C8.7,143.1,11,141.7,10.4,142.1z"/>
<path id="XMLID_39_" class="st0" d="M116.3,174.2c-20.7,0-37.2,15.9-37.4,36.2c-0.2,20.6,15.7,36.6,36.5,36.8
	c21.6,0.2,35.4-15.8,35.8-36.5C151.6,190.4,137.3,174.3,116.3,174.2z M115.8,230.5c-10.7,0-17.1-6.8-19.8-13.3
	c-2.1-4.8-1.7-11,0.4-15.8c2.9-6.5,9-12.3,18.2-12.3c7.6-0.4,20.8,6,20.8,21.6C135.4,217.4,129.1,230.5,115.8,230.5z"/>
<path id="XMLID_40_" class="st0" d="M308.6,148.5c-12.9-0.1-23.4,10.6-23.4,23.9c0,13.6,9.9,23.5,23.4,23.6
	c13.4,0,23.5-10.1,23.4-23.6C332,159,321.8,148.6,308.6,148.5z"/>
<path id="XMLID_43_" class="st0" d="M214.9,186c-26.9-22.3-51.2-40.5-76.3-55.9c-20.8-12.8-53.2-21.3-77.9-15.9
	C44,117.9,15.8,132.5,10,142.3c0.2-0.1,0.3-0.2,0.4-0.2c32.3-20.1,74.4-21.1,102.9-4.3c36.6,21.9,86.4,70.9,100.8,87.6l0,0
	C270.8,157,333.4,81.2,389.3,14C333,70.6,271.6,125.3,214.9,186z M215,186.1c0.1,0.1,0.3,0.2,0.4,0.3
	C215.4,186.4,215.2,186.3,215,186.1z"/>
</svg>
