<?xml version="1.0" encoding="utf-8"?>
<!-- Generator: Adobe Illustrator 19.0.0, SVG Export Plug-In . SVG Version: 6.00 Build 0)  -->
<svg version="1.1" id="Layer_1" xmlns="http://www.w3.org/2000/svg" xmlns:xlink="http://www.w3.org/1999/xlink" x="0px" y="0px"
	 viewBox="0 0 1000 355.7" style="enable-background:new 0 0 1000 355.7;" xml:space="preserve">
<style type="text/css">
	.st0{fill:#FEBE25;}
	.st1{fill:#373535;}
	.st2{font-family:'FuturaBT-Book';}
	.st3{font-size:121.8107px;}
	.st4{letter-spacing:-4;}
	.st5{display:none;fill:#373535;}
	.st6{fill:#373535;stroke:#FFFFFF;stroke-width:2;stroke-miterlimit:10;}
</style>
<rect id="XMLID_2_" x="477.7" y="85.4" class="st0" width="5" height="172.7"/>
<text id="XMLID_9_" transform="matrix(1 0 0 1 504.9785 177.0521)" class="st1 st2 st3 st4">business</text>
<text id="XMLID_27_" transform="matrix(1 0 0 1 504.9785 177.0521)" class="st5 st2 st3 st4">business</text>
<text id="XMLID_29_" transform="matrix(1 0 0 1 504.9785 177.0521)" class="st5 st2 st3 st4">business</text>
<text id="XMLID_62_" transform="matrix(1 0 0 1 504.9785 177.0521)" class="st5 st2 st3 st4">business</text>
<text id="XMLID_61_" transform="matrix(1 0 0 1 504.9785 177.0521)" class="st5 st2 st3 st4">business</text>
<g id="XMLID_12_">
	<path id="XMLID_93_" class="st1" d="M523.8,202.7v26.5c0,7.7,1.1,13.1,3.4,16.2c2.3,3.1,6.2,4.6,11.6,4.6c5.5,0,9.3-1.5,11.6-4.6
		c2.3-3,3.4-8.5,3.4-16.3v-26.5h9.4v31.4c0,8.1-2.1,14.3-6.2,18.4c-4.2,4.2-10.3,6.3-18.4,6.3c-8,0-14.1-2.1-18.2-6.3
		c-4.2-4.2-6.2-10.3-6.2-18.4v-31.4H523.8z"/>
	<path id="XMLID_95_" class="st1" d="M581.1,256.5v-53.8h9v8.3c2.3-3.4,5.1-6,8.4-7.7c3.3-1.7,7-2.5,11.3-2.5
		c6.4,0,11.3,1.7,14.9,5.1c3.6,3.4,5.4,8.1,5.4,14.1v36.6h-9.4v-31.7c0-5.4-1.1-9.5-3.4-12.1c-2.3-2.6-5.8-4-10.6-4
		c-2.7,0-5.2,0.5-7.5,1.5c-2.3,1-4.1,2.4-5.6,4.3c-1.1,1.4-2,3-2.4,4.8c-0.5,1.8-0.7,4.9-0.7,9.4v27.8H581.1z"/>
	<path id="XMLID_97_" class="st1" d="M648.6,256.5v-53.8h9.3v53.8H648.6z"/>
	<path id="XMLID_100_" class="st1" d="M673,229.8c0-4,0.7-7.7,2.2-11.2c1.4-3.5,3.6-6.6,6.4-9.4c2.8-2.7,5.9-4.8,9.5-6.3
		c3.5-1.4,7.3-2.1,11.3-2.1c3.9,0,7.6,0.7,11.1,2.2c3.5,1.5,6.7,3.6,9.6,6.4c2.8,2.7,4.9,5.8,6.4,9.3c1.4,3.5,2.2,7.2,2.2,11.1
		c0,3.9-0.7,7.6-2.2,11.1c-1.5,3.5-3.6,6.6-6.4,9.3c-2.9,2.8-6.1,5-9.6,6.5c-3.6,1.5-7.2,2.2-11.1,2.2c-4,0-7.7-0.7-11.3-2.2
		c-3.6-1.5-6.7-3.6-9.5-6.3c-2.8-2.8-4.9-6-6.4-9.4C673.7,237.4,673,233.7,673,229.8z M682.8,229.8c0,5.7,1.9,10.5,5.7,14.4
		c3.8,3.9,8.4,5.9,13.8,5.9c5.4,0,9.9-2,13.7-5.9c3.8-3.9,5.6-8.8,5.6-14.4c0-5.7-1.9-10.5-5.6-14.4c-3.8-3.9-8.3-5.9-13.7-5.9
		c-5.5,0-10.1,2-13.9,5.9C684.6,219.3,682.8,224.1,682.8,229.8z"/>
	<path id="XMLID_103_" class="st1" d="M745.9,256.5v-53.8h9v8.3c2.3-3.4,5.1-6,8.4-7.7c3.3-1.7,7-2.5,11.3-2.5
		c6.4,0,11.3,1.7,14.9,5.1c3.6,3.4,5.4,8.1,5.4,14.1v36.6h-9.4v-31.7c0-5.4-1.1-9.5-3.4-12.1c-2.3-2.6-5.8-4-10.6-4
		c-2.7,0-5.2,0.5-7.5,1.5c-2.3,1-4.1,2.4-5.6,4.3c-1.1,1.4-2,3-2.4,4.8c-0.5,1.8-0.7,4.9-0.7,9.4v27.8H745.9z"/>
</g>
<g id="XMLID_63_">
	<path id="XMLID_81_" class="st1" d="M523.8,202.7v26.5c0,7.7,1.1,13.1,3.4,16.2c2.3,3.1,6.2,4.6,11.6,4.6c5.5,0,9.3-1.5,11.6-4.6
		c2.3-3,3.4-8.5,3.4-16.3v-26.5h9.4v31.4c0,8.1-2.1,14.3-6.2,18.4c-4.2,4.2-10.3,6.3-18.4,6.3c-8,0-14.1-2.1-18.2-6.3
		c-4.2-4.2-6.2-10.3-6.2-18.4v-31.4H523.8z"/>
	<path id="XMLID_83_" class="st1" d="M581.1,256.5v-53.8h9v8.3c2.3-3.4,5.1-6,8.4-7.7c3.3-1.7,7-2.5,11.3-2.5
		c6.4,0,11.3,1.7,14.9,5.1c3.6,3.4,5.4,8.1,5.4,14.1v36.6h-9.4v-31.7c0-5.4-1.1-9.5-3.4-12.1c-2.3-2.6-5.8-4-10.6-4
		c-2.7,0-5.2,0.5-7.5,1.5c-2.3,1-4.1,2.4-5.6,4.3c-1.1,1.4-2,3-2.4,4.8c-0.5,1.8-0.7,4.9-0.7,9.4v27.8H581.1z"/>
	<path id="XMLID_85_" class="st1" d="M648.6,256.5v-53.8h9.3v53.8H648.6z"/>
	<path id="XMLID_88_" class="st1" d="M673,229.8c0-4,0.7-7.7,2.2-11.2c1.4-3.5,3.6-6.6,6.4-9.4c2.8-2.7,5.9-4.8,9.5-6.3
		c3.5-1.4,7.3-2.1,11.3-2.1c3.9,0,7.6,0.7,11.1,2.2c3.5,1.5,6.7,3.6,9.6,6.4c2.8,2.7,4.9,5.8,6.4,9.3c1.4,3.5,2.2,7.2,2.2,11.1
		c0,3.9-0.7,7.6-2.2,11.1c-1.5,3.5-3.6,6.6-6.4,9.3c-2.9,2.8-6.1,5-9.6,6.5c-3.6,1.5-7.2,2.2-11.1,2.2c-4,0-7.7-0.7-11.3-2.2
		c-3.6-1.5-6.7-3.6-9.5-6.3c-2.8-2.8-4.9-6-6.4-9.4C673.7,237.4,673,233.7,673,229.8z M682.8,229.8c0,5.7,1.9,10.5,5.7,14.4
		c3.8,3.9,8.4,5.9,13.8,5.9c5.4,0,9.9-2,13.7-5.9c3.8-3.9,5.6-8.8,5.6-14.4c0-5.7-1.9-10.5-5.6-14.4c-3.8-3.9-8.3-5.9-13.7-5.9
		c-5.5,0-10.1,2-13.9,5.9C684.6,219.3,682.8,224.1,682.8,229.8z"/>
	<path id="XMLID_91_" class="st1" d="M745.9,256.5v-53.8h9v8.3c2.3-3.4,5.1-6,8.4-7.7c3.3-1.7,7-2.5,11.3-2.5
		c6.4,0,11.3,1.7,14.9,5.1c3.6,3.4,5.4,8.1,5.4,14.1v36.6h-9.4v-31.7c0-5.4-1.1-9.5-3.4-12.1c-2.3-2.6-5.8-4-10.6-4
		c-2.7,0-5.2,0.5-7.5,1.5c-2.3,1-4.1,2.4-5.6,4.3c-1.1,1.4-2,3-2.4,4.8c-0.5,1.8-0.7,4.9-0.7,9.4v27.8H745.9z"/>
</g>
<g id="XMLID_64_">
	<path id="XMLID_69_" class="st1" d="M523.8,202.7v26.5c0,7.7,1.1,13.1,3.4,16.2c2.3,3.1,6.2,4.6,11.6,4.6c5.5,0,9.3-1.5,11.6-4.6
		c2.3-3,3.4-8.5,3.4-16.3v-26.5h9.4v31.4c0,8.1-2.1,14.3-6.2,18.4c-4.2,4.2-10.3,6.3-18.4,6.3c-8,0-14.1-2.1-18.2-6.3
		c-4.2-4.2-6.2-10.3-6.2-18.4v-31.4H523.8z"/>
	<path id="XMLID_71_" class="st1" d="M581.1,256.5v-53.8h9v8.3c2.3-3.4,5.1-6,8.4-7.7c3.3-1.7,7-2.5,11.3-2.5
		c6.4,0,11.3,1.7,14.9,5.1c3.6,3.4,5.4,8.1,5.4,14.1v36.6h-9.4v-31.7c0-5.4-1.1-9.5-3.4-12.1c-2.3-2.6-5.8-4-10.6-4
		c-2.7,0-5.2,0.5-7.5,1.5c-2.3,1-4.1,2.4-5.6,4.3c-1.1,1.4-2,3-2.4,4.8c-0.5,1.8-0.7,4.9-0.7,9.4v27.8H581.1z"/>
	<path id="XMLID_73_" class="st1" d="M648.6,256.5v-53.8h9.3v53.8H648.6z"/>
	<path id="XMLID_76_" class="st1" d="M673,229.8c0-4,0.7-7.7,2.2-11.2c1.4-3.5,3.6-6.6,6.4-9.4c2.8-2.7,5.9-4.8,9.5-6.3
		c3.5-1.4,7.3-2.1,11.3-2.1c3.9,0,7.6,0.7,11.1,2.2c3.5,1.5,6.7,3.6,9.6,6.4c2.8,2.7,4.9,5.8,6.4,9.3c1.4,3.5,2.2,7.2,2.2,11.1
		c0,3.9-0.7,7.6-2.2,11.1c-1.5,3.5-3.6,6.6-6.4,9.3c-2.9,2.8-6.1,5-9.6,6.5c-3.6,1.5-7.2,2.2-11.1,2.2c-4,0-7.7-0.7-11.3-2.2
		c-3.6-1.5-6.7-3.6-9.5-6.3c-2.8-2.8-4.9-6-6.4-9.4C673.7,237.4,673,233.7,673,229.8z M682.8,229.8c0,5.7,1.9,10.5,5.7,14.4
		c3.8,3.9,8.4,5.9,13.8,5.9c5.4,0,9.9-2,13.7-5.9c3.8-3.9,5.6-8.8,5.6-14.4c0-5.7-1.9-10.5-5.6-14.4c-3.8-3.9-8.3-5.9-13.7-5.9
		c-5.5,0-10.1,2-13.9,5.9C684.6,219.3,682.8,224.1,682.8,229.8z"/>
	<path id="XMLID_79_" class="st1" d="M745.9,256.5v-53.8h9v8.3c2.3-3.4,5.1-6,8.4-7.7c3.3-1.7,7-2.5,11.3-2.5
		c6.4,0,11.3,1.7,14.9,5.1c3.6,3.4,5.4,8.1,5.4,14.1v36.6h-9.4v-31.7c0-5.4-1.1-9.5-3.4-12.1c-2.3-2.6-5.8-4-10.6-4
		c-2.7,0-5.2,0.5-7.5,1.5c-2.3,1-4.1,2.4-5.6,4.3c-1.1,1.4-2,3-2.4,4.8c-0.5,1.8-0.7,4.9-0.7,9.4v27.8H745.9z"/>
</g>
<g id="XMLID_13_">
	<g id="XMLID_15_">
		<path id="XMLID_150_" class="st1" d="M525.4,202.7v26.5c0,7.7,1.1,13.1,3.4,16.2c2.3,3.1,6.2,4.6,11.6,4.6c5.5,0,9.3-1.5,11.6-4.6
			c2.3-3,3.4-8.5,3.4-16.3v-26.5h9.4v31.4c0,8.1-2.1,14.3-6.2,18.4c-4.2,4.2-10.3,6.3-18.4,6.3c-8,0-14.1-2.1-18.2-6.3
			c-4.2-4.2-6.2-10.3-6.2-18.4v-31.4H525.4z"/>
	</g>
	<g id="XMLID_17_">
		<path id="XMLID_147_" class="st1" d="M582.6,256.5v-53.8h9v8.3c2.3-3.4,5.1-6,8.4-7.7c3.3-1.7,7-2.5,11.3-2.5
			c6.4,0,11.3,1.7,14.9,5.1c3.6,3.4,5.4,8.1,5.4,14.1v36.6h-9.4v-31.7c0-5.4-1.1-9.5-3.4-12.1c-2.3-2.6-5.8-4-10.6-4
			c-2.7,0-5.2,0.5-7.5,1.5c-2.3,1-4.1,2.4-5.6,4.3c-1.1,1.4-2,3-2.4,4.8c-0.5,1.8-0.7,4.9-0.7,9.4v27.8H582.6z"/>
	</g>
	<g id="XMLID_19_">
		<path id="XMLID_141_" class="st1" d="M654.8,183.5 M659.5,172.1 M650,172 M650.2,256.5v-53.8h9.3v53.8H650.2z"/>
	</g>
	<g id="XMLID_22_">
		<path id="XMLID_137_" class="st1" d="M674.6,229.8c0-4,0.7-7.7,2.2-11.2c1.4-3.5,3.6-6.6,6.4-9.4c2.8-2.7,5.9-4.8,9.5-6.3
			c3.5-1.4,7.3-2.1,11.3-2.1c3.9,0,7.6,0.7,11.1,2.2c3.5,1.5,6.7,3.6,9.6,6.4c2.8,2.7,4.9,5.8,6.4,9.3c1.4,3.5,2.2,7.2,2.2,11.1
			c0,3.9-0.7,7.6-2.2,11.1c-1.5,3.5-3.6,6.6-6.4,9.3c-2.9,2.8-6.1,5-9.6,6.5c-3.6,1.5-7.2,2.2-11.1,2.2c-4,0-7.7-0.7-11.3-2.2
			c-3.6-1.5-6.7-3.6-9.5-6.3c-2.8-2.8-4.9-6-6.4-9.4C675.3,237.4,674.6,233.7,674.6,229.8z M684.3,229.8c0,5.7,1.9,10.5,5.7,14.4
			c3.8,3.9,8.4,5.9,13.8,5.9c5.4,0,9.9-2,13.7-5.9c3.8-3.9,5.6-8.8,5.6-14.4c0-5.7-1.9-10.5-5.6-14.4c-3.8-3.9-8.3-5.9-13.7-5.9
			c-5.5,0-10.1,2-13.9,5.9C686.2,219.3,684.3,224.1,684.3,229.8z"/>
	</g>
	<g id="XMLID_25_">
		<path id="XMLID_134_" class="st1" d="M747.4,256.5v-53.8h9v8.3c2.3-3.4,5.1-6,8.4-7.7c3.3-1.7,7-2.5,11.3-2.5
			c6.4,0,11.3,1.7,14.9,5.1c3.6,3.4,5.4,8.1,5.4,14.1v36.6h-9.4v-31.7c0-5.4-1.1-9.5-3.4-12.1c-2.3-2.6-5.8-4-10.6-4
			c-2.7,0-5.2,0.5-7.5,1.5c-2.3,1-4.1,2.4-5.6,4.3c-1.1,1.4-2,3-2.4,4.8c-0.5,1.8-0.7,4.9-0.7,9.4v27.8H747.4z"/>
	</g>
</g>
<g id="XMLID_30_">
	<g id="XMLID_50_">
		<path id="XMLID_130_" class="st1" d="M528.6,202.7v26.5c0,7.7,1.1,13.1,3.4,16.2c2.3,3.1,6.2,4.6,11.6,4.6s9.3-1.5,11.6-4.6
			c2.3-3,3.4-8.5,3.4-16.3v-26.5h9.4v31.4c0,8.1-2.1,14.3-6.2,18.4c-4.2,4.2-10.3,6.3-18.4,6.3c-8,0-14.1-2.1-18.2-6.3
			c-4.2-4.2-6.2-10.3-6.2-18.4v-31.4H528.6z"/>
	</g>
	<g id="XMLID_48_">
		<path id="XMLID_127_" class="st1" d="M585.8,256.5v-53.8h9v8.3c2.3-3.4,5.1-6,8.4-7.7c3.3-1.7,7-2.5,11.3-2.5
			c6.4,0,11.3,1.7,14.9,5.1c3.6,3.4,5.4,8.1,5.4,14.1v36.6h-9.4v-31.7c0-5.4-1.1-9.5-3.4-12.1c-2.3-2.6-5.8-4-10.6-4
			c-2.7,0-5.2,0.5-7.5,1.5c-2.3,1-4.1,2.4-5.6,4.3c-1.1,1.4-2,3-2.4,4.8c-0.5,1.8-0.7,4.9-0.7,9.4v27.8H585.8z"/>
	</g>
	<g id="XMLID_38_">
		<path id="XMLID_121_" class="st1" d="M658,183.5 M662.7,172.1 M653.2,172 M653.4,256.5v-53.8h9.3v53.8H653.4z"/>
	</g>
	<g id="XMLID_33_">
		<path id="XMLID_117_" class="st1" d="M676,229.8c0-4,0.7-7.7,2.2-11.2c1.4-3.5,3.6-6.6,6.4-9.4c2.8-2.7,5.9-4.8,9.5-6.3
			c3.5-1.4,7.3-2.1,11.3-2.1c3.9,0,7.6,0.7,11.1,2.2c3.5,1.5,6.7,3.6,9.6,6.4c2.8,2.7,4.9,5.8,6.4,9.3c1.4,3.5,2.2,7.2,2.2,11.1
			c0,3.9-0.7,7.6-2.2,11.1c-1.5,3.5-3.6,6.6-6.4,9.3c-2.9,2.8-6.1,5-9.6,6.5c-3.6,1.5-7.2,2.2-11.1,2.2c-4,0-7.7-0.7-11.3-2.2
			c-3.6-1.5-6.7-3.6-9.5-6.3c-2.8-2.8-4.9-6-6.4-9.4C676.8,237.4,676,233.7,676,229.8z M685.8,229.8c0,5.7,1.9,10.5,5.7,14.4
			c3.8,3.9,8.4,5.9,13.8,5.9c5.4,0,9.9-2,13.7-5.9c3.8-3.9,5.6-8.8,5.6-14.4c0-5.7-1.9-10.5-5.6-14.4c-3.8-3.9-8.3-5.9-13.7-5.9
			c-5.5,0-10.1,2-13.9,5.9C687.7,219.3,685.8,224.1,685.8,229.8z"/>
	</g>
	<g id="XMLID_31_">
		<path id="XMLID_114_" class="st1" d="M750.6,256.5v-53.8h9v8.3c2.3-3.4,5.1-6,8.4-7.7c3.3-1.7,7-2.5,11.3-2.5
			c6.4,0,11.3,1.7,14.9,5.1c3.6,3.4,5.4,8.1,5.4,14.1v36.6h-9.4v-31.7c0-5.4-1.1-9.5-3.4-12.1c-2.3-2.6-5.8-4-10.6-4
			c-2.7,0-5.2,0.5-7.5,1.5c-2.3,1-4.1,2.4-5.6,4.3c-1.1,1.4-2,3-2.4,4.8c-0.5,1.8-0.7,4.9-0.7,9.4v27.8H750.6z"/>
	</g>
</g>
<ellipse id="XMLID_11_" class="st6" cx="654.8" cy="176.4" rx="8.3" ry="8.6"/>
<path id="XMLID_6_" class="st1" d="M64.4,177.4c-0.1,0.1-0.2,0.1-0.4,0.2C62.7,178.4,65,177,64.4,177.4z"/>
<path id="XMLID_39_" class="st1" d="M170.3,209.5c-20.7,0-37.2,15.9-37.4,36.2c-0.2,20.6,15.7,36.6,36.5,36.8
	c21.6,0.2,35.4-15.8,35.8-36.5C205.6,225.7,191.3,209.6,170.3,209.5z M169.8,265.8c-10.7,0-17.1-6.8-19.8-13.3
	c-2.1-4.8-1.7-11,0.4-15.8c2.9-6.5,9-12.3,18.2-12.3c7.6-0.4,20.8,6,20.8,21.6C189.4,252.6,183.1,265.8,169.8,265.8z"/>
<path id="XMLID_40_" class="st1" d="M362.6,183.8c-12.9-0.1-23.4,10.6-23.4,23.9c0,13.6,9.9,23.5,23.4,23.6
	c13.4,0,23.5-10.1,23.4-23.6C386,194.3,375.8,183.9,362.6,183.8z"/>
<path id="XMLID_43_" class="st1" d="M268.9,221.3c-26.9-22.3-51.2-40.5-76.3-55.9c-20.8-12.8-53.2-21.3-77.9-15.9
	C98,153.2,69.8,167.8,64,177.6c0.2-0.1,0.3-0.2,0.4-0.2c32.3-20.1,74.4-21.1,102.9-4.3c36.6,21.9,86.4,70.9,100.8,87.6l0,0
	c56.8-68.4,119.4-144.2,175.3-211.4C387,105.8,325.6,160.6,268.9,221.3z M269,221.4c0.1,0.1,0.3,0.2,0.4,0.3
	C269.4,221.7,269.2,221.6,269,221.4z"/>
</svg>
