<?xml version="1.0" encoding="utf-8"?>
<!-- Generator: Adobe Illustrator 19.0.0, SVG Export Plug-In . SVG Version: 6.00 Build 0)  -->
<svg version="1.1" id="Capa_1" xmlns="http://www.w3.org/2000/svg" xmlns:xlink="http://www.w3.org/1999/xlink" x="0px" y="0px"
	 viewBox="-38.1 -19.9 106 106" style="enable-background:new -38.1 -19.9 106 106;" xml:space="preserve">
<g>
	<g>
		<path d="M48.2,23L18.7,11.8l-0.1-4c5.7-1.6,9.8-6.8,9.8-13c0-7.5-6.1-13.6-13.5-13.6c-3.7,0-8.8,2.8-11.5,7
			c-0.7,1-0.8,2.4-0.2,3.5c0.6,1.1,1.7,1.8,3,1.8h0.1c1.2,0,2.3-0.7,2.8-1.7c1.2-2.2,3.8-3.7,5.8-3.7c3.6,0,6.6,2.9,6.6,6.6
			c0,3.6-2.9,6.6-6.6,6.6c0,0,0,0,0,0c-0.9,0-1.7,0.3-2.3,1c-0.6,0.6-0.9,1.4-0.9,2.3l0.1,7L-18.5,23c-5.2,2-8.7,7.1-8.7,12.7v2.2
			c0,6.3,4.9,11.6,11.2,11.6h2.8v-7H-16c-2.4,0-4.2-2.2-4.2-4.6v-2.2c0-2.7,1.6-5.2,4.1-6.1l30.9-11.7l30.9,11.7
			c2.5,1,4.1,3.4,4.1,6.1v2.2c0,2.4-1.9,4.6-4.3,4.6h-2.6v7h2.6c6.3,0,11.2-5.4,11.2-11.6l-0.1-2.2C56.8,30.1,53.5,25,48.2,23z"/>
		<path d="M37.5,79.9c0,2.8-2.3,5.1-5.1,5.1h-35c-2.8,0-5.1-2.3-5.1-5.1V42.6c0-2.8,2.3-5.1,5.1-5.1h35c2.8,0,5.1,2.3,5.1,5.1
			L37.5,79.9L37.5,79.9z"/>
	</g>
</g>
</svg>
