<?xml version="1.0" encoding="utf-8"?>
<!-- Generator: Adobe Illustrator 19.0.0, SVG Export Plug-In . SVG Version: 6.00 Build 0)  -->
<svg version="1.1" id="Capa_1" xmlns="http://www.w3.org/2000/svg" xmlns:xlink="http://www.w3.org/1999/xlink" x="0px" y="0px"
	 viewBox="-36 -19.6 106 106" style="enable-background:new -36 -19.6 106 106;" xml:space="preserve">
<g>
	<path d="M10.6,51.7h-31.3c-0.7,0-1.3-0.6-1.3-1.3V-0.5c0-0.7,0.6-1.3,1.3-1.3h74.9c0.7,0,1.3,0.6,1.3,1.3v11.2
		c2.2,0.2,4.3,0.9,6,2.2V-0.3c0-4.1-3.4-7.3-7.3-7.3h-74.9c-4.1,0-7.3,3.4-7.3,7.3v50.9c0,4.1,3.4,7.3,7.3,7.3H4.4v9.9H0.5
		c-2.4,0-4.5,2-4.5,4.5s2,4.5,4.5,4.5h12.7c-1.5-2.2-2.6-4.8-2.6-7.8L10.6,51.7L10.6,51.7z"/>
	<path d="M35.7,72v-6.5H22.5V24.1c0-0.9,0.7-1.5,1.5-1.5h29.8c0.9,0,1.5,0.7,1.5,1.5v12.9h2.2c1.3,0,2.6,0.4,3.7,1.1V24.3
		c0-4.1-3.4-7.6-7.6-7.6H23.8c-4.1,0-7.6,3.4-7.6,7.6v44.5c0,4.1,3.4,7.6,7.6,7.6h12.9C36.1,74.9,35.7,73.3,35.7,72z"/>
	<path d="M57.7,40.7H43.2c-2,0-3.7,1.7-3.7,3.7V72c0,2,1.7,3.7,3.7,3.7h14.5c2,0,3.7-1.7,3.7-3.7V44.4
		C61.4,42.3,59.8,40.7,57.7,40.7z M43.9,45.1h13V69h-13V45.1z M50.4,73.8c-0.4,0-0.7-0.2-1.1-0.4c-0.4-0.4-0.6-0.7-0.6-1.1
		c0-0.9,0.7-1.5,1.7-1.5c0.9,0,1.5,0.7,1.5,1.5c0,0.4-0.2,0.9-0.6,1.1C51.2,73.6,50.8,73.8,50.4,73.8z"/>
</g>
</svg>
