<?xml version="1.0" encoding="utf-8"?>
<!-- Generator: Adobe Illustrator 19.0.0, SVG Export Plug-In . SVG Version: 6.00 Build 0)  -->
<svg version="1.1" id="Capa_1" xmlns="http://www.w3.org/2000/svg" xmlns:xlink="http://www.w3.org/1999/xlink" x="0px" y="0px"
	 viewBox="361.1 -21.1 106 106" style="enable-background:new 361.1 -21.1 106 106;" xml:space="preserve">
<g>
	<path d="M451.8,53.9h-11.5v-3.8h7c2.1,0,3.8-1.6,3.8-3.6V20.5c0-2-1.7-3.6-3.8-3.6h-15.5c-1.1,0-2.2,0.5-3,1.3l-2.8,3.2l-41.8-34.7
		c-0.7-0.7-2-0.7-2.7,0l-4.1,3.9c-0.7,0.7-0.7,1.9,0,2.6l4.5,4.9v32.2h-10.4c-1.6,0-2.9,1.2-2.9,2.7v20.6c0,1.5,1.3,2.7,2.9,2.7
		h26.5c1.6,0,2.9-1.2,2.9-2.7V32.9c0-1.5-1.3-2.7-2.9-2.7h-10.4V4.3l27.4,29.6l-1.9,2.2c-0.6,0.6-0.9,1.5-0.9,2.3v8
		c0,2,1.7,3.6,3.8,3.6h7v3.8h-11.5c-0.5,0-1,0.4-1,0.9V77c0,0.5,0.4,0.9,1,0.9h40.1c0.5,0,1-0.4,1-0.9V54.8
		C452.8,54.3,452.4,53.9,451.8,53.9z M374.6,50.8V38.6l15.7,12.2H374.6z M395.3,35.7v12.2l-15.7-12.2L395.3,35.7L395.3,35.7z
		 M420.1,39.8l13.5-15.6h9.9v15.6L420.1,39.8z"/>
</g>
</svg>
