<?xml version="1.0" encoding="utf-8"?>
<!-- Generator: Adobe Illustrator 19.0.0, SVG Export Plug-In . SVG Version: 6.00 Build 0)  -->
<svg version="1.1" id="Capa_1" xmlns="http://www.w3.org/2000/svg" xmlns:xlink="http://www.w3.org/1999/xlink" x="0px" y="0px"
	 viewBox="-54 -20 106 106" style="enable-background:new -54 -20 106 106;" xml:space="preserve">
<g>
	<g>
		<g>
			<path d="M-8,63.2c-3.5,3.5-9.7,3.5-13.2,0c-1.4-1.4-3.5-1.4-4.9,0s-1.4,3.5,0,4.9c3.1,3.1,6.9,4.9,11.5,4.9
				c4.2,0,8.3-1.7,11.5-4.9c1.4-1.4,1.4-3.5,0-4.9C-4.2,61.8-6.6,61.8-8,63.2z"/>
			<path d="M42,20.4c-1.4-0.3-3.1,0-4.2,0.7c-4.2-4.9-13.6-13.9-25.7-7.6c0,0-6.3-16,3.5-25.4c0.7,0.7,1.4,1.4,2.4,1.7
				c2.8,0.7,5.6-1,6.3-3.5c0.7-2.8-1-5.6-3.5-6.3c-2.8-0.7-5.6,1-6.3,3.5c0,0.7,0,1,0,1.7C6.9-14-7-10.5-12.5,3.4
				c0,0-7.3-17.7-26.4-12.5c-0.3-1.7-1.7-3.1-3.5-3.5c-2.8-0.7-5.6,0.7-6.3,3.5s0.7,5.6,3.5,6.3s5.6-1,6.3-3.5v-0.3
				c15.6,7.3,8.7,40.3,8.7,40.3c-7.3,5.2-12.2,13.6-12.2,23.3c0,15.6,12.5,28.1,28.1,28.1s28.1-12.5,28.1-28.1c0-4.2-1-8.3-2.8-12.2
				c0,0,5.9-18.8,25-20.2c-0.7,2.4,1,5.2,3.5,5.9c2.8,0.7,5.6-1,6.3-3.5C46.5,23.9,44.8,21.1,42,20.4z M-14.3,77.4
				c-11.8,0-21.2-9.4-21.2-21.2c0-2.8,0.7-5.6,1.7-8l4.2,4.2c0,0.3,0,0.3,0,0.7l-1,6.3c0,0.3,0,0.7,0.3,0.7c0.3,0,0.7,0.3,0.7,0
				l5.9-3.1c0.3,0,0.3,0,0.7,0l5.9,3.1c0.3,0,0.7,0,0.7,0c0.3-0.3,0.3-0.3,0.3-0.7l-1-6.3c0-0.3,0-0.3,0.3-0.7l4.5-4.5
				c0.3-0.3,0.3-0.3,0.3-0.7c0-0.3-0.3-0.3-0.7-0.7l-6.6-0.7c-0.3,0-0.3-0.3-0.7-0.3l-2.8-5.9c0-0.3-0.3-0.3-0.7-0.3s-0.7,0-0.7,0.3
				l-2.8,5.9c0,0.3-0.3,0.3-0.7,0.3l-5.6,0.7c2.1-3.8,4.9-6.6,8.7-8.7c3.5,1.7,8.3,3.5,13.6,4.9c5.2,1.4,10.4,2.4,14.2,2.8
				c2.1,3.1,3.1,6.9,3.1,11.1C6.6,68-2.8,77.4-14.3,77.4z M-26.8,50.6c0-2.1,1.7-3.5,3.5-3.5c2.1,0,3.5,1.7,3.5,3.5
				c0,2.1-1.7,3.5-3.5,3.5C-25.4,54.1-26.8,52.7-26.8,50.6z"/>
			<circle cx="-5.6" cy="50.6" r="4.5"/>
		</g>
	</g>
</g>
</svg>
