<?xml version="1.0" encoding="utf-8"?>
<!-- Generator: Adobe Illustrator 19.0.0, SVG Export Plug-In . SVG Version: 6.00 Build 0)  -->
<svg version="1.1" id="Capa_1" xmlns="http://www.w3.org/2000/svg" xmlns:xlink="http://www.w3.org/1999/xlink" x="0px" y="0px"
	 viewBox="70.6 -20.6 106 106" style="enable-background:new 70.6 -20.6 106 106;" xml:space="preserve">
<style type="text/css">
	.st0{fill:#010002;}
</style>
<g>
	<g>
		<path class="st0" d="M140.9,5.1c-1.6-0.5-3.4-0.8-5.5-0.8c-3.3,0-5.8,0.7-7.5,2.1c-1,0.8-1.9,2.1-2.9,4h20.7
			C145.6,7.9,144,6.1,140.9,5.1z"/>
		<path class="st0" d="M101.6,16.9c2,0.8,4,1.3,6.2,1.3c2.6,0,4.6-0.5,6.1-1.5c1.5-1,2.5-2.3,3.1-4H98.4
			C98.6,14.6,99.6,16,101.6,16.9z"/>
		<path class="st0" d="M123.3-14.5C98.3-14.5,78-2.9,78,11.5s20.3,26.1,45.3,26.1s45.3-11.7,45.3-26.1S148.3-14.5,123.3-14.5z
			 M159.3,12.6h-7.7c-0.5,4.4-3.2,7.4-8.1,8.9c-2.7,0.9-6.2,1.3-10.8,1.3v-4c3.6-0.1,6.2-0.5,7.9-1c3-1,4.6-2.7,5-5.2h-21.5
			c-1.1,3.3-2.9,5.7-5.4,7.3c-2.5,1.6-6,2.3-10.5,2.3c-4,0-7.6-0.8-10.8-2.5c-3.2-1.7-4.8-4-4.9-7.1h-5.2v-2.2h5.2
			c0.4-3,1.9-5.3,4.6-6.9c2.7-1.6,6.3-2.4,10.8-2.5v4c-2,0.1-3.7,0.4-5.2,0.9c-2.6,1-4,2.5-4.2,4.5h19.2c1.7-3.5,3.3-5.9,4.8-7.1
			c2.5-2,6.1-3,11-3c7,0,12,1.3,14.9,3.9c1.6,1.5,2.7,3.6,3.2,6.3h7.7L159.3,12.6L159.3,12.6z"/>
		<path class="st0" d="M123.3,41.1c-23,0-41.9-9.8-44.8-22.6C78.2,19.7,78,20.8,78,22c0,14.4,20.3,26.1,45.3,26.1
			s45.3-11.7,45.3-26.1c0-1.2-0.2-2.3-0.5-3.5C165.2,31.3,146.3,41.1,123.3,41.1z"/>
		<path class="st0" d="M123.3,51.6c-23,0-41.9-9.8-44.8-22.6c-0.3,1.1-0.5,2.3-0.5,3.5c0,14.4,20.3,26.1,45.3,26.1
			s45.3-11.7,45.3-26.1c0-1.2-0.2-2.3-0.5-3.5C165.2,41.7,146.3,51.6,123.3,51.6z"/>
		<path class="st0" d="M123.3,62c-23,0-41.9-9.8-44.8-22.6c-0.3,1.1-0.5,2.3-0.5,3.5C78,57.3,98.3,69,123.3,69s45.3-11.7,45.3-26.1
			c0-1.2-0.2-2.3-0.5-3.5C165.2,52.2,146.3,62,123.3,62z"/>
		<path class="st0" d="M123.3,72.5c-23,0-41.9-9.8-44.8-22.6C78.2,51,78,52.2,78,53.4c0,14.4,20.3,26.1,45.3,26.1
			s45.3-11.7,45.3-26.1c0-1.2-0.2-2.3-0.5-3.5C165.2,62.6,146.3,72.5,123.3,72.5z"/>
	</g>
</g>
</svg>
