<?xml version="1.0" encoding="utf-8"?>
<!-- Generator: Adobe Illustrator 19.0.0, SVG Export Plug-In . SVG Version: 6.00 Build 0)  -->
<svg version="1.1" id="Capa_1" xmlns="http://www.w3.org/2000/svg" xmlns:xlink="http://www.w3.org/1999/xlink" x="0px" y="0px"
	 viewBox="295.4 -21.4 106 106" style="enable-background:new 295.4 -21.4 106 106;" xml:space="preserve">
<g>
	<g>
		<path d="M346.8-7.3c-21.1,0-38.3,17.1-38.3,38.3c0,15.2,8.9,28.3,21.8,34.5l1.2-23.2c0,0-2.3-0.7-2.7-1c-4.8-2.1-8.3-8.3-8.3-16.4
			c0-8.8,6.8-16.3,13.4-16.4c0,0,0,0,0,0c0,0,0,0,0,0c6.6,0.1,13.4,7.6,13.4,16.4c0,8-3.5,14.2-8.2,16.4c0,0-2.8,1-2.8,1l1.3,25.7
			c2.9,0.7,6,1.1,9.1,1.1c4.3,0,8.3-0.7,12.2-2l1.2-22.9c-3.1-0.7-5.8-2.7-7.5-5.2c-2.1-3.1,1.6-30.5,1.6-30.5h2.4v25.7h2.4V8.6h2.6
			v25.7h2.4V8.6h2.7v25.7h2.4V8.6h1.8c0,0,3.7,27.4,1.6,30.5c-1.7,2.5-4.3,4.5-7.4,5.2c-0.1,0-0.1,0-0.1,0l1,19.7
			C377.4,57.5,385,45.2,385,31C385,9.9,367.9-7.3,346.8-7.3z"/>
		<path d="M326.1,21.2c0.1-0.6,0.3-1.1,0.3-1.1c0.1-0.2-0.1-0.4-0.3-0.6c-0.2-0.1-0.5-0.1-0.6,0.1c0,0-0.3,0.4-0.6,1
			c-0.3,0.5-0.8,1.4-1.1,2.4c-0.3,0.9-0.6,2.2-0.7,3.5c-0.1,0.7-0.1,1.4-0.1,2c0.1,0.8,0.2,1.4,0.4,2.2c0.8,2.1,1.3,4.2,3.4,6.2
			c0.7,0.7,1.3,1.1,1.8,1.5l0.2,0.1c0.1,0.1,0.2,0.1,0.3,0.2c0.4,0.2,0.7,0.3,0.7,0.3c0.2,0.1,0.4,0,0.5-0.2c0.1-0.2,0-0.4-0.1-0.5
			c0,0-0.2-0.2-0.5-0.6c-0.2-0.2-0.4-0.6-0.7-1c-0.2-0.3-0.4-0.6-0.6-0.9c-1-1.6-1.6-3.7-2.4-5.9c-0.2-0.5-0.3-1.1-0.3-1.6
			c-0.1-0.6-0.1-1.2-0.1-1.7c0-1.3,0-2.4,0.1-3.2C325.8,22.4,325.9,21.7,326.1,21.2z"/>
		<path d="M346.8-14.4c-25,0-45.4,20.4-45.4,45.4c0,25,20.4,45.4,45.4,45.4c25,0,45.4-20.4,45.4-45.4C392.1,6,371.8-14.4,346.8-14.4
			z M346.8,73c-23.2,0-42-18.8-42-42c0-23.2,18.8-42,42-42c23.2,0,42,18.8,42,42C388.8,54.2,369.9,73,346.8,73z"/>
	</g>
</g>
</svg>
