<?xml version="1.0" encoding="utf-8"?>
<!-- Generator: Adobe Illustrator 19.0.0, SVG Export Plug-In . SVG Version: 6.00 Build 0)  -->
<svg version="1.1" id="Capa_1" xmlns="http://www.w3.org/2000/svg" xmlns:xlink="http://www.w3.org/1999/xlink" x="0px" y="0px"
	 viewBox="115 -21 106 106" style="enable-background:new 115 -21 106 106;" xml:space="preserve">
<g>
	<path d="M213,21.2c5.3,0,8-3.7,8-7.2s-2.7-7.2-8-7.2c-0.9,0-2,0.1-3.1,0.4c3.7-3.7,3.4-6.9,3-8.4c-0.8-3-3.9-5.2-7.2-5.2
		c-2.4,0-4.5,1.2-6.1,3.1c-0.8,1-1.4,2.2-1.9,3.8c-0.4-1.4-1.1-2.7-1.9-3.8c-1.5-2-3.7-3.1-6.1-3.1c-3.4,0-6.4,2.2-7.2,5.2
		c-0.4,1.4-0.7,4.7,3,8.4c-1.1-0.3-2.2-0.4-3.1-0.4c-5.3,0-8,3.7-8,7.2s2.7,7.2,8,7.2c0.9,0,2-0.1,3.1-0.4c-3.7,3.7-3.4,6.9-3,8.4
		c0.8,3,3.9,5.2,7.2,5.2c2.4,0,4.5-1.2,6.1-3.1c0.1-0.1,0.3-0.3,0.3-0.5v21c-0.4-0.7-0.9-1.2-1.5-1.7c-3.9-3.8-9.5-4.2-11.8-4.2
		c-0.5,0-3.7,0-4.5,0.9c-0.8,0.8-0.9,3.9-0.8,6.4c0.3,2.7,1.2,6.5,4.1,9.3c3.8,3.7,9.5,4,11.8,4c0.4,0,1.5,0,2.6-0.1v2
		c0,0.9,0.7,1.6,1.6,1.6s1.6-0.7,1.6-1.6v-7.6c0.9,0.1,1.9,0.1,2.2,0.1c2,0,7-0.4,10.4-3.7c2.6-2.5,3.4-5.9,3.7-8.2
		c0.3-2.2,0-5-0.7-5.7c-0.8-0.8-3.5-0.8-4.1-0.8c-2,0-7,0.4-10.4,3.7c-0.4,0.4-0.8,0.9-1.2,1.3V31.4l0,0c1.5,2,3.7,3.1,6.1,3.1l0,0
		c3.4,0,6.4-2.2,7.2-5.2c0.4-1.4,0.7-4.7-3-8.4C211,21.1,211.9,21.2,213,21.2L213,21.2z M197.6,20.2c-3.5,0-6.4-2.7-6.4-6.1
		c0-3.4,2.8-6.1,6.4-6.1s6.4,2.7,6.4,6.1S201.1,20.2,197.6,20.2z"/>
	<path d="M160.4,12.5l-18.4,3.3v-3.1l-1.5-0.3l-4.6,0.9v3.7l-6.1,1L115,30.9v3.4c0,0,1.5,0,2.7,0l26.4-1l16.1-17.9l15.3,22.2l3-0.4
		L160.4,12.5z"/>
	<path d="M144.4,34.3l-25.3,0.9V56l23.3,2.7l0,0l14.5-1.7V40.9h6.6v15.4l10.7-1.3V37.8l-14.2-20.8L144.4,34.3z M128.9,49.6l-6.8-0.4
		v-8.4h6.8V49.6z M140.5,50.2l-7.9-0.5v-8.9h7.9V50.2z M153.6,49.8l-8.3,0.5v-9.4h8.3V49.8z M166.2,40.8h6.2v7.8l-6.2,0.4V40.8z"/>
</g>
</svg>
