<?xml version="1.0" encoding="utf-8"?>
<!-- Generator: Adobe Illustrator 19.0.0, SVG Export Plug-In . SVG Version: 6.00 Build 0)  -->
<svg version="1.1" id="Layer_1" xmlns="http://www.w3.org/2000/svg" xmlns:xlink="http://www.w3.org/1999/xlink" x="0px" y="0px"
	 viewBox="115 -21 106 106" style="enable-background:new 115 -21 106 106;" xml:space="preserve">
<style type="text/css">
	.st0{fill:#010101;}
</style>
<g>
	<path class="st0" d="M142.9,23.1c7.8,0,14-5.8,14-13.3c0-4.6,1.7-8.7-2.2-11.2c-2.2-1.2-12.2-2.1-14.8-2.1c-3.5,0-7.8,2.5-10.5,4.6
		c-3.1,2.5-0.4,4.6-0.4,8.7C129,17.3,135.1,23.1,142.9,23.1z M133.3,8.5c2.6-0.4,4.4,0.4,4.4,0.4l4.4-2.1c0,0-2.2,2.9-0.4,2.1
		c4.4-1.2,9.2-0.8,11.8-0.4c0,0.4,0,1.2,0,1.7c0,5.4-4.4,10-10,10c-5.7,0-10-4.6-10-10C132.9,9.4,133.3,8.9,133.3,8.5z"/>
	<path class="st0" d="M211.4,7.7c0-0.8,0-1.7-0.4-2.1c-0.4-4.6-4.8-14.1-17.4-13.7c-10.9,0.4-13.1,7.9-14,12.9
		c-0.4,1.2-0.4,2.5-0.9,3.7c-14,2.5-12.6,15.8-3.9,16.2c-0.9-7.1,2.6-11.2,3.9-12.9c1.3,7.5,7.8,12.9,16.1,12.9c7.8,0,14-5,15.7-12
		c1.3,2.1,3.5,6.6,3.1,11.6C227.5,24.3,221,9.4,211.4,7.7z M195.2,20.2c-6.5,0-11.3-5-11.8-10.8c2.2-0.8,3.9-4.6,3.9-4.6
		s1.3,0.4,1.3,4.6c2.6,0.8,6.5-6.6,6.5-6.6v5.8c2.6,0.8,10.9-0.4,10.9-0.4l0.4,0.4v0.4C206.6,15.2,201.3,20.2,195.2,20.2z"/>
	<polygon class="st0" points="198.3,25.1 191.8,25.1 186.1,25.1 169.1,44.3 152.9,25.1 134.2,25.1 115,45.5 118.9,49.7 132.9,38 
		132.9,60 135.5,60 135.5,76.7 133.8,76.7 133.8,78.7 142,78.7 142,76.7 142,60 145.1,60 145.1,76.7 145.1,78.7 152.9,78.7 
		152.9,76.7 151.2,76.7 151.2,60 154.7,60 154.7,38.4 165.6,49.7 170.4,48.4 172.6,48.8 185.2,35.1 186.1,40.9 174.3,59.6 
		187.8,59.6 187.8,76.3 186.1,76.3 186.1,78.3 193.9,78.3 193.9,76.3 193.9,76.3 193.9,59.6 197,59.6 197,76.3 197,78.3 205.3,78.3 
		205.3,76.3 203.5,76.3 203.5,59.6 213.6,59.6 203.5,40.9 204,33.9 214,46.8 220.5,45.1 204.8,25.1 	"/>
</g>
</svg>
