<?xml version="1.0" encoding="utf-8"?>
<!-- Generator: Adobe Illustrator 19.0.0, SVG Export Plug-In . SVG Version: 6.00 Build 0)  -->
<svg version="1.1" id="Layer_1" xmlns="http://www.w3.org/2000/svg" xmlns:xlink="http://www.w3.org/1999/xlink" x="0px" y="0px"
	 viewBox="364 -120 792 302" style="enable-background:new 364 -120 792 302;" xml:space="preserve">
<style type="text/css">
	.st0{fill:#FDBE24;}
	.st1{fill:#363636;}
	.st2{fill:#1B2527;}
	.st3{fill:none;}
</style>
<rect x="752.9" y="-25.9" class="st0" width="3.5" height="124.3"/>
<path class="st1" d="M899.5-6.9c0-1.3,0.5-2.5,1.4-3.4c0.9-0.9,2.1-1.4,3.4-1.4c1.3,0,2.5,0.5,3.4,1.4c0.9,1,1.4,2.1,1.4,3.5
	c0,1.3-0.5,2.4-1.4,3.4c-0.9,0.9-2.1,1.4-3.4,1.4c-1.3,0-2.5-0.5-3.4-1.4S899.5-5.5,899.5-6.9z"/>
<path class="st1" d="M799.7-0.5c-3.2,0-5.9,0.7-8.3,2.2c-2.4,1.4-4.3,3.6-5.8,6.5v-34H779v65.4h6.3v-7c1.5,2.8,3.5,4.9,5.9,6.4
	c2.4,1.5,5.2,2.3,8.1,2.3c5.6,0,10-1.9,13.4-5.7c3.4-3.8,5.1-8.9,5.1-15.1c0-6.3-1.7-11.4-5-15.1C809.6,1.4,805.2-0.5,799.7-0.5z
	 M807.5,30.7c-2.2,2.7-5.3,4-9.3,4c-4,0-7.2-1.3-9.5-3.8c-2.3-2.5-3.5-6-3.5-10.5c0-4.3,1.2-7.8,3.6-10.4c2.4-2.6,5.6-3.9,9.5-3.9
	c3.9,0,6.9,1.2,9.1,3.6c2.2,2.4,3.3,5.7,3.3,9.9C810.9,24.3,809.8,28,807.5,30.7z"/>
<path class="st1" d="M852.8,19.9c0,5.6-0.8,9.5-2.4,11.7c-1.6,2.2-4.4,3.3-8.3,3.3c-3.9,0-6.7-1.1-8.3-3.3
	c-1.6-2.2-2.5-6.1-2.5-11.6v-19h-6.9v22.5c0,5.8,1.5,10.2,4.5,13.2c3,3,7.3,4.5,13.1,4.5c5.8,0,10.2-1.5,13.2-4.5
	c3-3,4.5-7.4,4.5-13.2V0.9h-6.8L852.8,19.9L852.8,19.9z"/>
<path class="st1" d="M883,17.4c-0.6-0.2-1.3-0.4-2.3-0.7c-5.1-1.6-7.7-3.6-7.7-5.9c0-1.7,0.6-3.1,1.8-4.2c1.2-1.1,2.8-1.6,4.7-1.6
	c2,0,3.8,0.5,5.3,1.4c1.5,1,2.7,2.3,3.5,4.1l5.4-3.3c-1-2.4-2.8-4.3-5.1-5.7c-2.4-1.3-5.3-2-8.6-2c-4.1,0-7.3,1.1-9.9,3.2
	c-2.5,2.2-3.8,5-3.8,8.4c0,4.9,4.7,8.9,14.1,12.1l1.1,0.4c2.2,0.8,3.8,1.6,4.7,2.5c0.9,0.9,1.4,2,1.4,3.4c0,1.7-0.7,3.1-2,4.2
	s-3.1,1.6-5.3,1.6c-2.2,0-4.1-0.5-5.8-1.5c-1.6-1-3-2.6-4-4.6l-5.7,3.8c1.5,2.7,3.5,4.8,6.1,6.1c2.5,1.4,5.6,2,9.2,2
	c4.2,0,7.6-1.1,10.2-3.4c2.6-2.3,3.9-5.2,3.9-8.9c0-2.8-0.8-5.1-2.5-6.9C890.1,20.3,887.2,18.8,883,17.4z"/>
<rect x="901" y="0.9" class="st1" width="6.7" height="38.6"/>
<path class="st1" d="M938.7-0.5c-3.1,0-5.8,0.6-8.1,1.8c-2.3,1.2-4.3,3.1-6,5.5V0.9h-6.5v38.6h6.5v-20c0-3.2,0.2-5.5,0.5-6.8
	c0.4-1.3,0.9-2.4,1.8-3.5c1.1-1.3,2.4-2.3,4-3.1c1.6-0.7,3.4-1.1,5.4-1.1c3.4,0,6,0.9,7.6,2.8c1.6,1.9,2.5,4.8,2.5,8.7v22.7h6.8
	V13.2c0-4.3-1.3-7.7-3.8-10.1S943.3-0.5,938.7-0.5z"/>
<path class="st1" d="M978.7-0.6c-5.7,0-10.3,1.9-13.9,5.8c-3.6,3.9-5.4,8.8-5.4,14.9c0,6.3,1.8,11.4,5.4,15.3
	c3.6,3.9,8.4,5.8,14.3,5.8c4,0,7.5-0.9,10.5-2.7c3-1.8,5.5-4.4,7.4-7.9l-5-3.4c-1.6,2.8-3.4,4.9-5.5,6.3c-2.1,1.4-4.4,2.1-7,2.1
	c-3.8,0-6.9-1.3-9.2-3.8c-2.4-2.5-3.5-5.9-3.5-10v-0.6h30.6v-1.3c0-6.3-1.7-11.3-5-15C989,1.3,984.5-0.6,978.7-0.6z M966.7,15.8
	c0.3-3.2,1.6-5.8,3.7-7.7c2.1-1.9,4.8-2.9,8-2.9c3.5,0,6.3,0.9,8.4,2.8c2,1.8,3.2,4.5,3.4,7.9L966.7,15.8L966.7,15.8z"/>
<path class="st1" d="M1017.8,17.4c-0.6-0.2-1.3-0.4-2.3-0.7c-5.1-1.6-7.7-3.6-7.7-5.9c0-1.7,0.6-3.1,1.8-4.2
	c1.2-1.1,2.8-1.6,4.7-1.6c2,0,3.8,0.5,5.3,1.4c1.5,1,2.7,2.3,3.5,4.1l5.4-3.3c-1-2.4-2.8-4.3-5.1-5.7c-2.4-1.3-5.3-2-8.6-2
	c-4,0-7.3,1.1-9.9,3.2c-2.5,2.2-3.8,5-3.8,8.4c0,4.9,4.7,8.9,14.1,12.1l1.1,0.4c2.2,0.8,3.8,1.6,4.7,2.5c0.9,0.9,1.4,2,1.4,3.4
	c0,1.7-0.7,3.1-2,4.2c-1.3,1.1-3.1,1.6-5.3,1.6c-2.2,0-4.1-0.5-5.8-1.5c-1.6-1-3-2.6-4-4.6l-5.7,3.8c1.5,2.7,3.5,4.8,6.1,6.1
	c2.5,1.4,5.6,2,9.2,2c4.2,0,7.6-1.1,10.2-3.4c2.6-2.3,3.9-5.2,3.9-8.9c0-2.8-0.8-5.1-2.5-6.9S1022,18.8,1017.8,17.4z"/>
<path class="st1" d="M1058.3,22c-1.6-1.7-4.6-3.3-8.8-4.6c-0.6-0.2-1.3-0.4-2.3-0.7c-5.1-1.6-7.7-3.6-7.7-5.9c0-1.7,0.6-3.1,1.8-4.2
	c1.2-1.1,2.8-1.6,4.7-1.6c2,0,3.8,0.5,5.3,1.4c1.5,1,2.7,2.3,3.5,4.1l5.4-3.3c-1-2.4-2.8-4.3-5.1-5.7c-2.4-1.3-5.3-2-8.6-2
	c-4,0-7.3,1.1-9.9,3.2c-2.5,2.2-3.8,5-3.8,8.4c0,4.9,4.7,8.9,14.1,12.1l1.1,0.4c2.2,0.8,3.8,1.6,4.7,2.5c0.9,0.9,1.4,2,1.4,3.4
	c0,1.7-0.7,3.1-2,4.2c-1.3,1.1-3.1,1.6-5.3,1.6c-2.2,0-4.1-0.5-5.8-1.5c-1.6-1-3-2.6-4-4.6l-5.7,3.8c1.5,2.7,3.5,4.8,6.1,6.1
	c2.5,1.4,5.6,2,9.2,2c4.2,0,7.6-1.1,10.2-3.4c2.6-2.3,3.9-5.2,3.9-8.9C1060.8,26,1059.9,23.8,1058.3,22z"/>
<path class="st2" d="M459.8,40.3c-0.1,0.1-0.2,0.1-0.3,0.2C458.6,41,460.2,40,459.8,40.3z"/>
<path class="st1" d="M525.4,64.2c-13.9,0-25.2,11.3-25.2,25.2c0,13.9,11.3,25.2,25.2,25.2c13.9,0,25.2-11.3,25.2-25.2
	C550.6,75.5,539.3,64.2,525.4,64.2z M525.4,104.5c-8.3,0-15-6.7-15-15c0-8.3,6.7-15,15-15c8.3,0,15,6.7,15,15
	C540.4,97.7,533.7,104.5,525.4,104.5z"/>
<path class="st1" d="M604.8,71.4c-19.1-15.9-36.3-28.7-54.1-39.7c-14.8-9.1-37.7-15.1-55.3-11.2c-11.8,2.6-31.8,13-35.9,19.9
	c0.1-0.1,0.2-0.1,0.3-0.2c22.9-14.3,52.8-15,73-3c26,15.5,61.3,50.3,71.5,62.1c40.3-48.5,84.7-102.3,124.3-150
	C688.6-10.5,645.1,28.4,604.8,71.4L604.8,71.4z M604.9,71.5c0.2,0.1,0.3,0.2,0.3,0.2C605.2,71.6,605,71.6,604.9,71.5L604.9,71.5z"/>
<circle class="st3" cx="525.4" cy="89.4" r="15"/>
<circle class="st3" cx="525.4" cy="89.4" r="15"/>
<circle class="st1" cx="676.9" cy="64.2" r="16.2"/>
<ellipse class="st1" cx="879.2" cy="51.2" rx="5.9" ry="6.1"/>
<path class="st1" d="M838.6,60.7c-0.9,0.5-1.8,1-2.6,1.7v-2.1h-2.2h-1.1h-3h-2.2h-1.1v38.2h1.1h2.2h3.1h1.1h2.2V78.7
	c0-3.2,0.2-5.4,0.5-6.7c0.3-1.3,0.9-2.4,1.7-3.4c1.1-1.3,2.4-2.3,4-3c3.3-1.5,7-1.1,9.5,1.8c1.6,1.9,2.4,4.8,2.4,8.6v22.5h1.1h2.2
	h3.3h1.1h2.2v-26c0-4.3-1.3-7.6-3.8-10C855.9,58.1,844.4,57.7,838.6,60.7z"/>
<polygon class="st1" points="880.8,60.3 877.6,60.3 875.3,60.3 874.2,60.3 874.2,98.4 875.3,98.4 877.6,98.4 880.8,98.4 881.9,98.4 
	884.2,98.4 884.2,60.3 881.9,60.3 "/>
<path class="st1" d="M929.1,64.9c-2-2-4.3-3.5-6.8-4.5c-5.1-2.1-13-2.1-18.1,0c-2.5,1-4.7,2.5-6.7,4.4c-2,1.9-3.5,4.2-4.5,6.7
	c-1,2.5-1.5,5.1-1.5,7.9s0.5,5.4,1.5,7.9c1,2.4,2.5,4.7,4.5,6.7c2,1.9,4.2,3.4,6.7,4.5c5.1,2.1,12.9,2.1,18,0
	c2.5-1.1,4.8-2.6,6.8-4.6c2-1.9,3.5-4.1,4.5-6.6c1-2.5,1.5-5.1,1.5-7.9s-0.5-5.4-1.5-7.9C932.5,69.1,931,66.8,929.1,64.9z M922,89.7
	c-5.2,5.4-12.2,5.4-17.4,0c-2.7-2.8-4-6.2-4-10.2s1.3-7.4,4-10.2c5.2-5.4,12.2-5.4,17.4,0c2.7,2.8,4,6.2,4,10.2S924.6,86.9,922,89.7
	z"/>
<path class="st1" d="M977.4,62.5c-4.6-4.4-16.1-4.8-21.9-1.8c-0.9,0.5-1.8,1-2.6,1.7v-2.1h-2.2h-1.1h-3h-2.2h-1.1v38.2h1.1h2.2h3.1
	h1.1h2.2V78.7c0-3.2,0.2-5.4,0.5-6.7c0.3-1.3,0.9-2.4,1.7-3.4c1.1-1.3,2.4-2.3,4-3c3.3-1.5,7-1.1,9.5,1.8c1.6,1.9,2.4,4.8,2.4,8.6
	v22.5h1.1h2.2h3.3h1.1h2.2v-26C981.2,68.2,979.9,64.9,977.4,62.5z"/>
<path class="st1" d="M813.6,60.3h-3.3h-2.2h-1.1V79c0,5.5-0.8,9.4-2.4,11.5c-3,4.1-10,4.1-13.1,0c-1.6-2.2-2.4-6-2.4-11.5V60.3h-2.2
	h-1.1h-3.5h-2.2h-1.1v22.3c0,5.7,1.5,10.1,4.4,13.1c6.2,6.3,23.2,6.1,29.3,0c2.9-3,4.4-7.3,4.4-13.1V60.3h-2.2H813.6z"/>
</svg>
