<?xml version="1.0" encoding="utf-8"?>
<!-- Generator: Adobe Illustrator 19.0.0, SVG Export Plug-In . SVG Version: 6.00 Build 0)  -->
<svg version="1.1" id="Capa_1" xmlns="http://www.w3.org/2000/svg" xmlns:xlink="http://www.w3.org/1999/xlink" x="0px" y="0px"
	 viewBox="209.1 41.9 106 106" style="enable-background:new 209.1 41.9 106 106;" xml:space="preserve">
<path d="M314.9,89c-0.2-1.5-1.9-2.6-3.4-2.6c-4.9,0-9.2-2.9-11-7.3c-1.8-4.5-0.7-9.8,3-13.1c1.1-1,1.3-2.8,0.3-4
	c-2.5-3.2-5.3-6-8.4-8.5c-1.2-1-3-0.8-4,0.3c-3.2,3.5-8.9,4.8-13.2,3c-4.6-1.9-7.5-6.6-7.2-11.5c0.1-1.6-1-2.9-2.6-3.1
	c-4-0.5-8-0.5-12,0c-1.5,0.2-2.7,1.5-2.6,3c0.2,4.9-2.7,9.5-7.3,11.3c-4.3,1.8-10,0.5-13.1-3c-1-1.1-2.8-1.3-4-0.3
	c-3.2,2.5-6.1,5.4-8.6,8.5c-1,1.2-0.8,3,0.3,4c3.7,3.3,4.9,8.7,3,13.3c-1.8,4.4-6.4,7.2-11.6,7.2c-1.7-0.1-2.9,1.1-3.1,2.6
	c-0.5,4-0.5,8.1,0,12.1c0.2,1.5,2,2.6,3.5,2.6c4.6-0.1,9.1,2.7,10.9,7.3c1.9,4.5,0.7,9.8-3,13.1c-1.1,1-1.3,2.8-0.3,4
	c2.5,3.1,5.3,6,8.4,8.5c1.2,1,3,0.8,4-0.3c3.2-3.5,8.9-4.8,13.2-3c4.6,1.9,7.5,6.6,7.2,11.5c-0.1,1.6,1.1,2.9,2.6,3.1
	c2,0.2,4.1,0.4,6.1,0.4c1.9,0,3.9-0.1,5.8-0.3c1.5-0.2,2.7-1.5,2.6-3c-0.2-4.9,2.7-9.5,7.3-11.3c4.4-1.8,10-0.5,13.2,3
	c1,1.1,2.8,1.3,4,0.3c3.2-2.5,6.1-5.3,8.6-8.5c1-1.2,0.8-3-0.3-4c-3.7-3.3-4.9-8.7-3-13.2c1.8-4.3,6.2-7.2,10.9-7.2l0.7,0
	c1.5,0.1,2.9-1.1,3.1-2.6C315.3,97.1,315.3,93,314.9,89z M262.1,125.5c-16.9,0-30.6-13.7-30.6-30.6s13.7-30.6,30.6-30.6
	s30.6,13.7,30.6,30.6c0,5.7-1.6,11.1-4.3,15.7L275,97.2c1-2.3,1.5-4.8,1.5-7.3c0-5-2-9.7-5.5-13.3c-3.5-3.5-8.3-5.5-13.3-5.5
	c-1.7,0-3.3,0.2-4.9,0.7c-0.7,0.2-1.3,0.8-1.5,1.5c-0.2,0.7,0,1.5,0.6,2c0,0,6.6,6.7,8.8,8.9c0.2,0.2,0.2,0.8,0.2,1l0,0.1
	c-0.2,2.4-0.7,5.4-1,6.5c0,0-0.1,0.1-0.1,0.1c-0.1,0.1-0.1,0.1-0.1,0.2c-1.1,0.4-4.1,0.8-6.6,1l0,0l-0.1,0c0,0-0.1,0-0.1,0
	c-0.3,0-0.7-0.1-1-0.4c-2.3-2.3-8.7-8.6-8.7-8.6c-0.6-0.6-1.2-0.7-1.5-0.7c-0.9,0-1.7,0.7-2,1.6c-1.8,6.5,0.1,13.4,4.8,18.2
	c3.5,3.5,8.3,5.5,13.3,5.5c2.6,0,5-0.5,7.3-1.5l13.6,13.6C273.8,123.7,268.2,125.5,262.1,125.5z"/>
</svg>
