<?xml version="1.0" encoding="utf-8"?>
<!-- Generator: Adobe Illustrator 19.0.0, SVG Export Plug-In . SVG Version: 6.00 Build 0)  -->
<svg version="1.1" id="Capa_1" xmlns="http://www.w3.org/2000/svg" xmlns:xlink="http://www.w3.org/1999/xlink" x="0px" y="0px"
	 viewBox="527 -21 106 106" style="enable-background:new 527 -21 106 106;" xml:space="preserve">
<g>
	<path d="M548.9,77h59.9V14.8h-13.3V9.3c0-4.9-4-8.8-8.8-8.8H571c-4.9,0-8.8,4-8.8,8.8v5.5h-13.3L548.9,77L548.9,77z M586.2,56.4
		l-3.6,2.8l0.3,4.6c0.1,0.9-0.4,1.8-1.2,2.3c-0.4,0.2-0.8,0.3-1.2,0.3c-0.5,0-1-0.1-1.4-0.4l-3.8-2.5l-4.2,1.7
		c-0.9,0.3-1.9,0.2-2.5-0.5c-0.7-0.6-1-1.6-0.7-2.5l1.2-4.4l-2.9-3.5c-0.6-0.7-0.7-1.7-0.3-2.6c0.4-0.9,1.2-1.4,2.1-1.4l4.6-0.2
		l2.4-3.8c0.5-0.8,1.4-1.2,2.3-1.1c0.9,0.1,1.7,0.7,2,1.6l1.6,4.3l4.4,1.1c0.9,0.2,1.6,1,1.8,1.9C587.2,54.9,586.9,55.9,586.2,56.4z
		 M598,22.5c4.4,0,7.2,1.7,7.2,4.3c0,2.6-2.8,4.3-7.2,4.3c-4.3,0-7.2-1.7-7.2-4.3C590.8,24.2,593.6,22.5,598,22.5z M567.1,9.3
		c0-2.2,1.8-3.9,3.9-3.9h15.5c2.2,0,3.9,1.8,3.9,3.9v5.5h-23.4V9.3z M554.8,37.3l6.8-3.8c0.6-0.3,1.2-0.4,1.9-0.2
		c0.6,0.2,1.2,0.6,1.5,1.2l3.8,6.8c0.7,1.2,0.2,2.7-1,3.3l-6.8,3.8c-0.4,0.2-0.8,0.3-1.2,0.3c-0.2,0-0.5,0-0.7-0.1
		c-0.6-0.2-1.2-0.6-1.5-1.2l-3.8-6.8C553.2,39.5,553.7,38,554.8,37.3z M625.6,21.2v49.5c0,3.5-2.8,6.3-6.3,6.3h-5.6V14.8h5.6
		C622.7,14.8,625.6,17.7,625.6,21.2z M544,77h-5.6c-3.5,0-6.3-2.8-6.3-6.3V21.2c0-3.5,2.8-6.3,6.3-6.3h5.6L544,77L544,77z"/>
</g>
</svg>
