<?xml version="1.0" encoding="utf-8"?>
<!-- Generator: Adobe Illustrator 19.0.0, SVG Export Plug-In . SVG Version: 6.00 Build 0)  -->
<svg version="1.1" id="Capa_1" xmlns="http://www.w3.org/2000/svg" xmlns:xlink="http://www.w3.org/1999/xlink" x="0px" y="0px"
	 viewBox="115 -21 106 106" style="enable-background:new 115 -21 106 106;" xml:space="preserve">
<path d="M127.9,49.6v18.3c0,1.6,1.3,2.9,2.9,2.9h5.8c1,3.4,4.1,5.8,7.8,5.8s6.8-2.4,7.8-5.8h17.4c1,3.4,4.1,5.8,7.8,5.8
	c3.7,0,6.8-2.4,7.8-5.8h3c1.6,0,2.9-1.3,2.9-2.9V57.1c0-1.6-1.1-3.1-2.5-3.7l-5.7-2.2c-1.1-0.4-2.6-1.7-3.3-2.6l-6.2-9.6
	c-0.8-1.2-2.6-2.3-4.1-2.3h-16v-1.3H166c1.1,0,2-0.9,2-2v-6.5c0-1.1-0.9-2-2-2h-8.9v-1c0-1.4-1.1-2.5-2.5-2.5h-15.5
	c-1.4,0-2.5,1.1-2.5,2.5v8.9c0,1.4,1.1,2.5,2.5,2.5h12.5v1.3h-13.7c-1.5,0-3.3,1-4.2,2.2l-4.4,6.1C128.5,46.1,127.9,48.1,127.9,49.6
	z M159.2,51.5l-6-0.3V40.5h5L159.2,51.5z M173.3,68.5c0-2.3,1.8-4,4-4c2.3,0,4,1.8,4,4c0,2.3-1.8,4-4,4S173.3,70.8,173.3,68.5z
	 M162.8,51.7l-1-11.2h5.7c1,0,2.4,0.8,2.9,1.7l5.1,8.5c0.5,0.9,0.2,1.6-1,1.6L162.8,51.7z M147.1,51l1-10.5h3.6v10.6L147.1,51z
	 M140.4,68.5c0-2.3,1.8-4,4-4c2.3,0,4,1.8,4,4c0,2.3-1.8,4-4,4C142.2,72.5,140.4,70.8,140.4,68.5z M133.9,48.6l2.4-6.3
	c0.3-1,1.6-1.8,2.6-1.8h5.6l-0.9,10.3l-8.4-0.3C134.2,50.5,133.6,49.6,133.9,48.6z"/>
<g>
	<g>
		<path d="M184.9-6.6l-11.6-0.6c-0.1,0-0.3,0-0.4,0.1l-6.4,3.4c-0.2,0.1-0.3,0.3-0.4,0.5c0,0.2,0,0.4,0.2,0.6l3.3,4
			c0,0,0.1,0,0.1-0.1L184.9-6.6z"/>
		<path d="M207.8-10.7L207.8-10.7c-0.5-0.9-1.5-1.9-3.8-1.9c-2.5,0-5.1,1.1-5.2,1.2c-6.5,2.6-36.9,18.6-36.9,18.6l-7.3-3.9
			c-0.2-0.1-0.5-0.1-0.7,0L148.8,6c-0.2,0.1-0.4,0.3-0.4,0.6c0,0.2,0.1,0.5,0.3,0.6L161.2,18c0.2,0.2,0.6,0.2,0.8,0.1l12.3-6.4
			l1.9,13.1c0,0.2,0.2,0.4,0.4,0.6c0.1,0.1,0.2,0.1,0.3,0.1c0.1,0,0.2,0,0.3-0.1c1.3-0.7,2.1-1.1,2.9-1.6c0.8-0.4,1.6-0.9,3-1.6
			c0.1-0.1,0.3-0.2,0.3-0.3l8.7-19.4l9-4.7C205.2-4.5,209.2-7.8,207.8-10.7z"/>
	</g>
</g>
</svg>
